<svg xmlns="http://www.w3.org/2000/svg" width="335" height="453" viewBox="0 0 335 453" fill="none">
  <g filter="url(#filter0_b_2007_928)">
    <path d="M0 443C0 448.523 4.47715 453 10 453H295.779C298.755 453 301.577 451.674 303.477 449.382L332.698 414.136C334.186 412.342 335 410.084 335 407.754V10C335 4.47714 330.523 0 325 0H9.99999C4.47714 0 0 4.47714 0 10V443Z" fill="url(#paint0_linear_2007_928)" fill-opacity="0.1"/>
    <path d="M0.5 443C0.5 448.247 4.75329 452.5 10 452.5H295.779C298.607 452.5 301.287 451.24 303.092 449.063L332.313 413.817C333.727 412.112 334.5 409.968 334.5 407.754V10C334.5 4.7533 330.247 0.5 325 0.5H9.99999C4.75329 0.5 0.5 4.7533 0.5 10V443Z" stroke="url(#paint1_linear_2007_928)"/>
  </g>
  <defs>
    <filter id="filter0_b_2007_928" x="-4" y="-4" width="343" height="461" filterUnits="userSpaceOnUse" color-interpolation-filters="sRGB">
      <feFlood flood-opacity="0" result="BackgroundImageFix"/>
      <feGaussianBlur in="BackgroundImageFix" stdDeviation="2"/>
      <feComposite in2="SourceAlpha" operator="in" result="effect1_backgroundBlur_2007_928"/>
      <feBlend mode="normal" in="SourceGraphic" in2="effect1_backgroundBlur_2007_928" result="shape"/>
    </filter>
    <linearGradient id="paint0_linear_2007_928" x1="11.7773" y1="453" x2="442.052" y2="298.89" gradientUnits="userSpaceOnUse">
      <stop stop-color="white"/>
      <stop offset="1" stop-color="white" stop-opacity="0"/>
    </linearGradient>
    <linearGradient id="paint1_linear_2007_928" x1="15.7031" y1="437.469" x2="327.186" y2="283.643" gradientUnits="userSpaceOnUse">
      <stop stop-color="#CFDCF0" stop-opacity="0.42"/>
      <stop offset="1" stop-color="#CFDCF0" stop-opacity="0.06"/>
    </linearGradient>
  </defs>
</svg>