<svg xmlns="http://www.w3.org/2000/svg" width="375" height="751" viewBox="0 0 375 751" fill="none">
  <g filter="url(#filter0_d_175_7142)">
    <path d="M375 701C375 706.523 370.523 711 365 711H291.94C287.337 711 282.875 709.412 279.306 706.505L227.391 664.203C223.822 661.295 219.36 659.708 214.757 659.708L10.0013 659.708C4.47849 659.708 0.00134277 655.231 0.00134277 649.708V10C0.00134277 4.47717 4.47849 0 10.0013 0H365C370.523 0 375 4.47717 375 10V701Z" fill="url(#paint0_linear_175_7142)" fill-opacity="0.1" shape-rendering="crispEdges"/>
    <path d="M374.5 701C374.5 706.247 370.247 710.5 365 710.5H291.94C287.452 710.5 283.101 708.952 279.622 706.117L227.707 663.815C224.049 660.835 219.475 659.208 214.757 659.208L10.0013 659.208C4.75464 659.208 0.501343 654.954 0.501343 649.708V10C0.501343 4.7533 4.75464 0.5 10.0013 0.5H365C370.247 0.5 374.5 4.7533 374.5 10V701Z" stroke="url(#paint1_linear_175_7142)" shape-rendering="crispEdges"/>
  </g>
  <defs>
    <filter id="filter0_d_175_7142" x="-19.998" y="0" width="414.998" height="751" filterUnits="userSpaceOnUse" color-interpolation-filters="sRGB">
      <feFlood flood-opacity="0" result="BackgroundImageFix"/>
      <feColorMatrix in="SourceAlpha" type="matrix" values="0 0 0 0 0 0 0 0 0 0 0 0 0 0 0 0 0 0 127 0" result="hardAlpha"/>
      <feOffset dy="20"/>
      <feGaussianBlur stdDeviation="10"/>
      <feComposite in2="hardAlpha" operator="out"/>
      <feColorMatrix type="matrix" values="0 0 0 0 0 0 0 0 0 0 0 0 0 0 0 0 0 0 0.25 0"/>
      <feBlend mode="normal" in2="BackgroundImageFix" result="effect1_dropShadow_175_7142"/>
      <feBlend mode="normal" in="SourceGraphic" in2="effect1_dropShadow_175_7142" result="shape"/>
    </filter>
    <linearGradient id="paint0_linear_175_7142" x1="361.816" y1="711" x2="-148.332" y2="580.684" gradientUnits="userSpaceOnUse">
      <stop stop-color="white"/>
      <stop offset="1" stop-color="white" stop-opacity="0"/>
    </linearGradient>
    <linearGradient id="paint1_linear_175_7142" x1="357.422" y1="686.623" x2="-28.4227" y2="550.723" gradientUnits="userSpaceOnUse">
      <stop stop-color="#CFDCF0" stop-opacity="0.42"/>
      <stop offset="1" stop-color="#CFDCF0" stop-opacity="0.06"/>
    </linearGradient>
  </defs>
</svg>