<svg width="1280" height="639" viewBox="0 0 1280 639" fill="none" xmlns="http://www.w3.org/2000/svg">
<g filter="url(#filter0_d_117_825)">
<path d="M1260 589C1260 594.523 1255.52 599 1250 599H866.44C861.837 599 857.375 597.412 853.806 594.505L801.891 552.203C798.322 549.295 793.86 547.708 789.257 547.708H30.0183C24.4883 547.708 20.0082 543.219 20.0183 537.689L20.981 9.98169C20.991 4.466 25.4652 0 30.981 0H1250C1255.52 0 1260 4.47717 1260 10V589Z" fill="url(#paint0_linear_117_825)" fill-opacity="0.1" shape-rendering="crispEdges"/>
<path d="M1259.5 589C1259.5 594.247 1255.25 598.5 1250 598.5H866.44C861.952 598.5 857.601 596.952 854.122 594.117L802.207 551.815C798.549 548.835 793.975 547.208 789.257 547.208H30.0183C24.7648 547.208 20.5087 542.944 20.5183 537.69L21.481 9.9826C21.4905 4.74274 25.741 0.5 30.981 0.5H1250C1255.25 0.5 1259.5 4.7533 1259.5 10V589Z" stroke="url(#paint1_linear_117_825)" shape-rendering="crispEdges"/>
</g>
<defs>
<filter id="filter0_d_117_825" x="0.0175781" y="0" width="1279.98" height="639" filterUnits="userSpaceOnUse" color-interpolation-filters="sRGB">
<feFlood flood-opacity="0" result="BackgroundImageFix"/>
<feColorMatrix in="SourceAlpha" type="matrix" values="0 0 0 0 0 0 0 0 0 0 0 0 0 0 0 0 0 0 127 0" result="hardAlpha"/>
<feOffset dy="20"/>
<feGaussianBlur stdDeviation="10"/>
<feComposite in2="hardAlpha" operator="out"/>
<feColorMatrix type="matrix" values="0 0 0 0 0 0 0 0 0 0 0 0 0 0 0 0 0 0 0.25 0"/>
<feBlend mode="normal" in2="BackgroundImageFix" result="effect1_dropShadow_117_825"/>
<feBlend mode="normal" in="SourceGraphic" in2="effect1_dropShadow_117_825" result="shape"/>
</filter>
<linearGradient id="paint0_linear_117_825" x1="1216.41" y1="599" x2="320.266" y2="-299.483" gradientUnits="userSpaceOnUse">
<stop stop-color="white"/>
<stop offset="1" stop-color="white" stop-opacity="0"/>
</linearGradient>
<linearGradient id="paint1_linear_117_825" x1="1201.87" y1="578.463" x2="709.229" y2="-102.583" gradientUnits="userSpaceOnUse">
<stop stop-color="#CFDCF0" stop-opacity="0.42"/>
<stop offset="1" stop-color="#CFDCF0" stop-opacity="0.06"/>
</linearGradient>
</defs>
</svg>
