<svg xmlns="http://www.w3.org/2000/svg" width="256" height="213" viewBox="0 0 256 213" fill="none">
  <g filter="url(#filter0_b_2007_1157)">
    <path d="M0 10C0 4.47715 4.47715 0 10 0H210.601C213.275 0 215.837 1.07079 217.716 2.97324L253.115 38.8173C254.964 40.689 256 43.2136 256 45.8441V202.5C256 208.023 251.523 212.5 246 212.5H10C4.47715 212.5 0 208.023 0 202.5V10Z" fill="url(#paint0_linear_2007_1157)" fill-opacity="0.1"/>
    <path d="M0.5 10C0.5 4.75329 4.75329 0.5 10 0.5H210.601C213.141 0.5 215.575 1.51725 217.36 3.32457L252.759 39.1687C254.515 40.9467 255.5 43.3451 255.5 45.8441V202.5C255.5 207.747 251.247 212 246 212H10C4.7533 212 0.5 207.747 0.5 202.5V10Z" stroke="url(#paint1_linear_2007_1157)"/>
  </g>
  <defs>
    <filter id="filter0_b_2007_1157" x="-4" y="-4" width="264" height="220.5" filterUnits="userSpaceOnUse" color-interpolation-filters="sRGB">
      <feFlood flood-opacity="0" result="BackgroundImageFix"/>
      <feGaussianBlur in="BackgroundImageFix" stdDeviation="2"/>
      <feComposite in2="SourceAlpha" operator="in" result="effect1_backgroundBlur_2007_1157"/>
      <feBlend mode="normal" in="SourceGraphic" in2="effect1_backgroundBlur_2007_1157" result="shape"/>
    </filter>
    <linearGradient id="paint0_linear_2007_1157" x1="9" y1="2.29529e-06" x2="285.766" y2="161.485" gradientUnits="userSpaceOnUse">
      <stop stop-color="white"/>
      <stop offset="1" stop-color="white" stop-opacity="0"/>
    </linearGradient>
    <linearGradient id="paint1_linear_2007_1157" x1="12" y1="7.28571" x2="191.745" y2="151.891" gradientUnits="userSpaceOnUse">
      <stop stop-color="#CFDCF0" stop-opacity="0.42"/>
      <stop offset="1" stop-color="#CFDCF0" stop-opacity="0.06"/>
    </linearGradient>
  </defs>
</svg>