<svg viewBox="0 0 239 239" fill="none" xmlns="http://www.w3.org/2000/svg">
<path d="M72.4349 76.5723C72.4419 75.1916 73.5668 74.0779 74.9475 74.0849L164.547 74.5346C165.928 74.5416 167.042 75.6665 167.035 77.0472L166.585 166.647C166.578 168.028 165.453 169.141 164.072 169.134L153.342 169.08C151.962 169.073 150.848 167.949 150.855 166.568L151.139 109.891C151.155 106.773 147.393 105.192 145.177 107.386L83.246 168.698C82.2648 169.67 80.6819 169.662 79.7105 168.68L72.0418 160.934C71.0704 159.953 71.0783 158.37 72.0595 157.399L133.991 96.0865C136.207 93.8927 134.664 90.115 131.546 90.0993L74.8685 89.8148C73.4878 89.8079 72.3742 88.683 72.3811 87.3023L72.4349 76.5723Z" stroke="#225196"/>
</svg>
