<svg width="256" height="175" viewBox="0 0 256 175" fill="none" xmlns="http://www.w3.org/2000/svg">
<g id="main-section-background" filter="url(#filter0_b_115_357)">
<path d="M0 10C0 4.47715 4.47715 0 10 0H210.601C213.275 0 215.837 1.07079 217.716 2.97324L253.115 38.8173C254.964 40.689 256 43.2136 256 45.8441V165C256 170.523 251.523 175 246 175H10C4.47715 175 0 170.523 0 165V10Z" fill="url(#paint0_linear_115_357)" fill-opacity="0.1"/>
<path d="M0.5 10C0.5 4.75329 4.75329 0.5 10 0.5H210.601C213.141 0.5 215.575 1.51725 217.36 3.32457L252.759 39.1687C254.515 40.9467 255.5 43.3451 255.5 45.8441V165C255.5 170.247 251.247 174.5 246 174.5H10C4.75329 174.5 0.5 170.247 0.5 165V10Z" stroke="url(#paint1_linear_115_357)"/>
</g>
<defs>
<filter id="filter0_b_115_357" x="-4" y="-4" width="264" height="183" filterUnits="userSpaceOnUse" color-interpolation-filters="sRGB">
<feFlood flood-opacity="0" result="BackgroundImageFix"/>
<feGaussianBlur in="BackgroundImageFix" stdDeviation="2"/>
<feComposite in2="SourceAlpha" operator="in" result="effect1_backgroundBlur_115_357"/>
<feBlend mode="normal" in="SourceGraphic" in2="effect1_backgroundBlur_115_357" result="shape"/>
</filter>
<linearGradient id="paint0_linear_115_357" x1="9" y1="1.89024e-06" x2="256" y2="175" gradientUnits="userSpaceOnUse">
<stop stop-color="white"/>
<stop offset="1" stop-color="white" stop-opacity="0"/>
</linearGradient>
<linearGradient id="paint1_linear_115_357" x1="12" y1="6" x2="163.5" y2="154" gradientUnits="userSpaceOnUse">
<stop stop-color="#CFDCF0" stop-opacity="0.42"/>
<stop offset="1" stop-color="#CFDCF0" stop-opacity="0.06"/>
</linearGradient>
</defs>
</svg>
