<svg xmlns="http://www.w3.org/2000/svg" width="343" height="139" viewBox="0 0 343 139" fill="none">
  <g filter="url(#filter0_b_2007_972)">
    <path d="M0 10C0 4.47715 4.47715 0 10 0H285C286.813 0 288.592 0.492947 290.147 1.4261L338.147 30.239C341.158 32.0465 343 35.301 343 38.8129V129C343 134.523 338.523 139 333 139H10C4.47716 139 0 134.523 0 129V10Z" fill="url(#paint0_linear_2007_972)" fill-opacity="0.1"/>
    <path d="M0.5 10C0.5 4.7533 4.7533 0.5 10 0.5H285C286.723 0.5 288.413 0.968299 289.89 1.8548L337.889 30.6677C340.75 32.3848 342.5 35.4766 342.5 38.8129V129C342.5 134.247 338.247 138.5 333 138.5H10C4.7533 138.5 0.5 134.247 0.5 129V10Z" stroke="url(#paint1_linear_2007_972)"/>
  </g>
  <defs>
    <filter id="filter0_b_2007_972" x="-4" y="-4" width="351" height="147" filterUnits="userSpaceOnUse" color-interpolation-filters="sRGB">
      <feFlood flood-opacity="0" result="BackgroundImageFix"/>
      <feGaussianBlur in="BackgroundImageFix" stdDeviation="2"/>
      <feComposite in2="SourceAlpha" operator="in" result="effect1_backgroundBlur_2007_972"/>
      <feBlend mode="normal" in="SourceGraphic" in2="effect1_backgroundBlur_2007_972" result="shape"/>
    </filter>
    <linearGradient id="paint0_linear_2007_972" x1="12.0586" y1="1.50139e-06" x2="216.751" y2="244.636" gradientUnits="userSpaceOnUse">
      <stop stop-color="white"/>
      <stop offset="1" stop-color="white" stop-opacity="0"/>
    </linearGradient>
    <linearGradient id="paint1_linear_2007_972" x1="16.0781" y1="4.76571" x2="122.847" y2="180.708" gradientUnits="userSpaceOnUse">
      <stop stop-color="#CFDCF0" stop-opacity="0.42"/>
      <stop offset="1" stop-color="#CFDCF0" stop-opacity="0.06"/>
    </linearGradient>
  </defs>
</svg>