<svg width="305" height="305" viewBox="0 0 305 305" fill="none" xmlns="http://www.w3.org/2000/svg">
<rect x="0.5" y="208.5" width="23" height="67" rx="2.5" stroke="#3C8AFF"/>
<rect x="36.5" y="102.5" width="23" height="173" rx="2.5" stroke="#3C8AFF"/>
<rect x="72.5" y="166.5" width="23" height="109" rx="2.5" stroke="#3C8AFF"/>
<g clip-path="url(#clip0_0_1)">
<g filter="url(#filter0_d_0_1)">
<g filter="url(#filter1_biiii_0_1)">
<path d="M194.267 97.8539C202.287 94.5882 210.282 102.584 207.017 110.604L152.166 245.3C148.832 253.488 137.207 253.403 133.993 245.167L114.7 195.728C113.706 193.18 111.691 191.165 109.143 190.171L59.704 170.878C51.4674 167.664 51.3822 156.039 59.5708 152.704L194.267 97.8539Z" fill="black" fill-opacity="0.2"/>
</g>
<path d="M146.026 151.699C147.936 149.789 151.033 149.789 152.943 151.699C154.853 153.609 154.853 156.706 152.943 158.616L115.02 196.539L114.957 196.336C113.973 193.172 111.454 190.722 108.265 189.824L107.98 189.744L146.026 151.699Z" fill="#0D25FE"/>
<path d="M146.026 151.699C147.936 149.789 151.033 149.789 152.943 151.699C154.853 153.609 154.853 156.706 152.943 158.616L115.02 196.539L114.957 196.336C113.973 193.172 111.454 190.722 108.265 189.824L107.98 189.744L146.026 151.699Z" fill="url(#paint0_linear_0_1)"/>
</g>
</g>
<defs>
<filter id="filter0_d_0_1" x="16.8789" y="36.0624" width="271.93" height="271.931" filterUnits="userSpaceOnUse" color-interpolation-filters="sRGB">
<feFlood flood-opacity="0" result="BackgroundImageFix"/>
<feColorMatrix in="SourceAlpha" type="matrix" values="0 0 0 0 0 0 0 0 0 0 0 0 0 0 0 0 0 0 127 0" result="hardAlpha"/>
<feOffset dy="20"/>
<feGaussianBlur stdDeviation="10"/>
<feComposite in2="hardAlpha" operator="out"/>
<feColorMatrix type="matrix" values="0 0 0 0 0 0 0 0 0 0 0 0 0 0 0 0 0 0 0.25 0"/>
<feBlend mode="normal" in2="BackgroundImageFix" result="effect1_dropShadow_0_1"/>
<feBlend mode="normal" in="SourceGraphic" in2="effect1_dropShadow_0_1" result="shape"/>
</filter>
<filter id="filter1_biiii_0_1" x="44.3461" y="87.9746" width="172.55" height="179.071" filterUnits="userSpaceOnUse" color-interpolation-filters="sRGB">
<feFlood flood-opacity="0" result="BackgroundImageFix"/>
<feGaussianBlur in="BackgroundImageFix" stdDeviation="4.56522"/>
<feComposite in2="SourceAlpha" operator="in" result="effect1_backgroundBlur_0_1"/>
<feBlend mode="normal" in="SourceGraphic" in2="effect1_backgroundBlur_0_1" result="shape"/>
<feColorMatrix in="SourceAlpha" type="matrix" values="0 0 0 0 0 0 0 0 0 0 0 0 0 0 0 0 0 0 127 0" result="hardAlpha"/>
<feOffset dy="-3.91304"/>
<feGaussianBlur stdDeviation="6.52174"/>
<feComposite in2="hardAlpha" operator="arithmetic" k2="-1" k3="1"/>
<feColorMatrix type="matrix" values="0 0 0 0 1 0 0 0 0 1 0 0 0 0 1 0 0 0 0.15 0"/>
<feBlend mode="normal" in2="shape" result="effect2_innerShadow_0_1"/>
<feColorMatrix in="SourceAlpha" type="matrix" values="0 0 0 0 0 0 0 0 0 0 0 0 0 0 0 0 0 0 127 0" result="hardAlpha"/>
<feOffset dy="-6.52174"/>
<feGaussianBlur stdDeviation="11.775"/>
<feComposite in2="hardAlpha" operator="arithmetic" k2="-1" k3="1"/>
<feColorMatrix type="matrix" values="0 0 0 0 1 0 0 0 0 1 0 0 0 0 1 0 0 0 0.15 0"/>
<feBlend mode="normal" in2="effect2_innerShadow_0_1" result="effect3_innerShadow_0_1"/>
<feColorMatrix in="SourceAlpha" type="matrix" values="0 0 0 0 0 0 0 0 0 0 0 0 0 0 0 0 0 0 127 0" result="hardAlpha"/>
<feOffset dy="15.6522"/>
<feGaussianBlur stdDeviation="7.96584"/>
<feComposite in2="hardAlpha" operator="arithmetic" k2="-1" k3="1"/>
<feColorMatrix type="matrix" values="0 0 0 0 1 0 0 0 0 1 0 0 0 0 1 0 0 0 0.1 0"/>
<feBlend mode="normal" in2="effect3_innerShadow_0_1" result="effect4_innerShadow_0_1"/>
<feColorMatrix in="SourceAlpha" type="matrix" values="0 0 0 0 0 0 0 0 0 0 0 0 0 0 0 0 0 0 127 0" result="hardAlpha"/>
<feOffset dy="3.8413"/>
<feGaussianBlur stdDeviation="1.99146"/>
<feComposite in2="hardAlpha" operator="arithmetic" k2="-1" k3="1"/>
<feColorMatrix type="matrix" values="0 0 0 0 1 0 0 0 0 1 0 0 0 0 1 0 0 0 0.15 0"/>
<feBlend mode="normal" in2="effect4_innerShadow_0_1" result="effect5_innerShadow_0_1"/>
</filter>
<linearGradient id="paint0_linear_0_1" x1="107.864" y1="189.628" x2="109.227" y2="153.097" gradientUnits="userSpaceOnUse">
<stop stop-color="#80D1FF"/>
<stop offset="1" stop-color="#3849FB"/>
</linearGradient>
<clipPath id="clip0_0_1">
<rect width="217.38" height="213.154" fill="white" transform="translate(150.723) rotate(45)"/>
</clipPath>
</defs>
</svg>
