<svg xmlns="http://www.w3.org/2000/svg" width="1440" height="653" viewBox="0 0 1440 653" fill="none">
<path d="M-5.98347 10.0166C-5.9926 4.48727 -1.51278 0 4.01652 0H599.56C604.163 0 608.625 1.58775 612.194 4.49536L664.109 46.7971C667.677 49.7047 672.14 51.2924 676.743 51.2924H1436C1441.52 51.2924 1446 55.7696 1446 61.2924V642.5C1446 648.023 1441.52 652.5 1436 652.5H399.138C397.094 652.5 395.1 651.874 393.423 650.707L331.075 607.293C329.398 606.126 327.404 605.5 325.361 605.5H4.98267C-0.533737 605.5 -5.00823 601.033 -5.01733 595.516L-5.98347 10.0166Z" fill="#225196"/>
</svg>