<svg xmlns="http://www.w3.org/2000/svg" width="375" height="789" viewBox="0 0 375 789" fill="none">
<path d="M0 9.99998C0 4.47713 4.47715 0 10 0H263.883C268.486 0 272.949 1.58775 276.517 4.49536L328.432 46.7971C332.001 49.7047 336.463 51.2924 341.066 51.2924H431.81C437.338 51.2924 441.817 55.7778 441.81 61.306L440.838 778.514C440.83 784.031 436.355 788.5 430.838 788.5H151.639C149.596 788.5 147.602 787.874 145.925 786.707L83.5765 743.293C81.8997 742.126 79.9055 741.5 77.8623 741.5H9.99998C4.47714 741.5 0 737.023 0 731.5V9.99998Z" fill="#225196"/>
</svg>