<svg width="133" height="169" viewBox="0 0 133 169" fill="none" xmlns="http://www.w3.org/2000/svg">
<g filter="url(#filter0_d_175_6983)">
<g filter="url(#filter1_biiii_175_6983)">
<path d="M59.3523 127.822L102.163 112.88C107.378 111.06 110.129 105.358 108.309 100.144L87.6662 40.9961L68.3199 31.0566L32.1091 43.6947C25.8518 45.8786 22.5497 52.7214 24.7335 58.9787L46.6156 121.676C48.4355 126.89 54.1379 129.642 59.3523 127.822Z" fill="black" fill-opacity="0.2"/>
</g>
<path fill-rule="evenodd" clip-rule="evenodd" d="M53.3008 93.8102C51.7365 94.3562 50.9109 96.0669 51.4569 97.6312C52.0029 99.1955 53.7136 100.021 55.2779 99.4751L86.4877 88.5825C88.0521 88.0365 88.8776 86.3258 88.3316 84.7615C87.7857 83.1972 86.0749 82.3716 84.5106 82.9176L53.3008 93.8102ZM56.8455 103.972C55.2812 104.518 54.4557 106.228 55.0016 107.793C55.5476 109.357 57.2583 110.182 58.8226 109.637L90.0325 98.7439C91.5968 98.1979 92.4223 96.4872 91.8764 94.9229C91.3304 93.3585 89.6197 92.533 88.0554 93.079L56.8455 103.972Z" fill="#0D25FE"/>
<path fill-rule="evenodd" clip-rule="evenodd" d="M53.3008 93.8102C51.7365 94.3562 50.9109 96.0669 51.4569 97.6312C52.0029 99.1955 53.7136 100.021 55.2779 99.4751L86.4877 88.5825C88.0521 88.0365 88.8776 86.3258 88.3316 84.7615C87.7857 83.1972 86.0749 82.3716 84.5106 82.9176L53.3008 93.8102ZM56.8455 103.972C55.2812 104.518 54.4557 106.228 55.0016 107.793C55.5476 109.357 57.2583 110.182 58.8226 109.637L90.0325 98.7439C91.5968 98.1979 92.4223 96.4872 91.8764 94.9229C91.3304 93.3585 89.6197 92.533 88.0554 93.079L56.8455 103.972Z" fill="url(#paint0_linear_175_6983)"/>
<g filter="url(#filter2_biiii_175_6983)">
<path d="M87.6739 41.0163L68.3202 31.0569L72.0772 41.8215C72.8742 44.105 75.3714 45.3101 77.6549 44.5131L87.6739 41.0163Z" fill="white" fill-opacity="0.2"/>
</g>
</g>
<defs>
<filter id="filter0_d_175_6983" x="-20" y="0" width="172.363" height="197.303" filterUnits="userSpaceOnUse" color-interpolation-filters="sRGB">
<feFlood flood-opacity="0" result="BackgroundImageFix"/>
<feColorMatrix in="SourceAlpha" type="matrix" values="0 0 0 0 0 0 0 0 0 0 0 0 0 0 0 0 0 0 127 0" result="hardAlpha"/>
<feOffset dy="20"/>
<feGaussianBlur stdDeviation="10"/>
<feComposite in2="hardAlpha" operator="out"/>
<feColorMatrix type="matrix" values="0 0 0 0 0 0 0 0 0 0 0 0 0 0 0 0 0 0 0.25 0"/>
<feBlend mode="normal" in2="BackgroundImageFix" result="effect1_dropShadow_175_6983"/>
<feBlend mode="normal" in="SourceGraphic" in2="effect1_dropShadow_175_6983" result="shape"/>
</filter>
<filter id="filter1_biiii_175_6983" x="11.7986" y="18.7947" width="109.334" height="130.609" filterUnits="userSpaceOnUse" color-interpolation-filters="sRGB">
<feFlood flood-opacity="0" result="BackgroundImageFix"/>
<feGaussianBlur in="BackgroundImageFix" stdDeviation="6.13098"/>
<feComposite in2="SourceAlpha" operator="in" result="effect1_backgroundBlur_175_6983"/>
<feBlend mode="normal" in="SourceGraphic" in2="effect1_backgroundBlur_175_6983" result="shape"/>
<feColorMatrix in="SourceAlpha" type="matrix" values="0 0 0 0 0 0 0 0 0 0 0 0 0 0 0 0 0 0 127 0" result="hardAlpha"/>
<feOffset dy="-5.25513"/>
<feGaussianBlur stdDeviation="8.75855"/>
<feComposite in2="hardAlpha" operator="arithmetic" k2="-1" k3="1"/>
<feColorMatrix type="matrix" values="0 0 0 0 1 0 0 0 0 1 0 0 0 0 1 0 0 0 0.15 0"/>
<feBlend mode="normal" in2="shape" result="effect2_innerShadow_175_6983"/>
<feColorMatrix in="SourceAlpha" type="matrix" values="0 0 0 0 0 0 0 0 0 0 0 0 0 0 0 0 0 0 127 0" result="hardAlpha"/>
<feOffset dy="-8.75855"/>
<feGaussianBlur stdDeviation="15.8136"/>
<feComposite in2="hardAlpha" operator="arithmetic" k2="-1" k3="1"/>
<feColorMatrix type="matrix" values="0 0 0 0 1 0 0 0 0 1 0 0 0 0 1 0 0 0 0.15 0"/>
<feBlend mode="normal" in2="effect2_innerShadow_175_6983" result="effect3_innerShadow_175_6983"/>
<feColorMatrix in="SourceAlpha" type="matrix" values="0 0 0 0 0 0 0 0 0 0 0 0 0 0 0 0 0 0 127 0" result="hardAlpha"/>
<feOffset dy="21.0205"/>
<feGaussianBlur stdDeviation="10.6979"/>
<feComposite in2="hardAlpha" operator="arithmetic" k2="-1" k3="1"/>
<feColorMatrix type="matrix" values="0 0 0 0 1 0 0 0 0 1 0 0 0 0 1 0 0 0 0.1 0"/>
<feBlend mode="normal" in2="effect3_innerShadow_175_6983" result="effect4_innerShadow_175_6983"/>
<feColorMatrix in="SourceAlpha" type="matrix" values="0 0 0 0 0 0 0 0 0 0 0 0 0 0 0 0 0 0 127 0" result="hardAlpha"/>
<feOffset dy="5.15878"/>
<feGaussianBlur stdDeviation="2.67448"/>
<feComposite in2="hardAlpha" operator="arithmetic" k2="-1" k3="1"/>
<feColorMatrix type="matrix" values="0 0 0 0 1 0 0 0 0 1 0 0 0 0 1 0 0 0 0.15 0"/>
<feBlend mode="normal" in2="effect4_innerShadow_175_6983" result="effect5_innerShadow_175_6983"/>
</filter>
<filter id="filter2_biiii_175_6983" x="-55.6131" y="-92.8763" width="267.22" height="261.569" filterUnits="userSpaceOnUse" color-interpolation-filters="sRGB">
<feFlood flood-opacity="0" result="BackgroundImageFix"/>
<feGaussianBlur in="BackgroundImageFix" stdDeviation="61.9667"/>
<feComposite in2="SourceAlpha" operator="in" result="effect1_backgroundBlur_175_6983"/>
<feBlend mode="normal" in="SourceGraphic" in2="effect1_backgroundBlur_175_6983" result="shape"/>
<feColorMatrix in="SourceAlpha" type="matrix" values="0 0 0 0 0 0 0 0 0 0 0 0 0 0 0 0 0 0 127 0" result="hardAlpha"/>
<feOffset dy="-5.25513"/>
<feGaussianBlur stdDeviation="8.75855"/>
<feComposite in2="hardAlpha" operator="arithmetic" k2="-1" k3="1"/>
<feColorMatrix type="matrix" values="0 0 0 0 1 0 0 0 0 1 0 0 0 0 1 0 0 0 0.15 0"/>
<feBlend mode="normal" in2="shape" result="effect2_innerShadow_175_6983"/>
<feColorMatrix in="SourceAlpha" type="matrix" values="0 0 0 0 0 0 0 0 0 0 0 0 0 0 0 0 0 0 127 0" result="hardAlpha"/>
<feOffset dy="-8.75855"/>
<feGaussianBlur stdDeviation="15.8136"/>
<feComposite in2="hardAlpha" operator="arithmetic" k2="-1" k3="1"/>
<feColorMatrix type="matrix" values="0 0 0 0 1 0 0 0 0 1 0 0 0 0 1 0 0 0 0.15 0"/>
<feBlend mode="normal" in2="effect2_innerShadow_175_6983" result="effect3_innerShadow_175_6983"/>
<feColorMatrix in="SourceAlpha" type="matrix" values="0 0 0 0 0 0 0 0 0 0 0 0 0 0 0 0 0 0 127 0" result="hardAlpha"/>
<feOffset dy="21.0205"/>
<feGaussianBlur stdDeviation="10.6979"/>
<feComposite in2="hardAlpha" operator="arithmetic" k2="-1" k3="1"/>
<feColorMatrix type="matrix" values="0 0 0 0 1 0 0 0 0 1 0 0 0 0 1 0 0 0 0.1 0"/>
<feBlend mode="normal" in2="effect3_innerShadow_175_6983" result="effect4_innerShadow_175_6983"/>
<feColorMatrix in="SourceAlpha" type="matrix" values="0 0 0 0 0 0 0 0 0 0 0 0 0 0 0 0 0 0 127 0" result="hardAlpha"/>
<feOffset dy="5.15878"/>
<feGaussianBlur stdDeviation="2.67448"/>
<feComposite in2="hardAlpha" operator="arithmetic" k2="-1" k3="1"/>
<feColorMatrix type="matrix" values="0 0 0 0 1 0 0 0 0 1 0 0 0 0 1 0 0 0 0.15 0"/>
<feBlend mode="normal" in2="effect4_innerShadow_175_6983" result="effect5_innerShadow_175_6983"/>
</filter>
<linearGradient id="paint0_linear_175_6983" x1="55.3678" y1="110.842" x2="49.8066" y2="97.7646" gradientUnits="userSpaceOnUse">
<stop stop-color="#80D1FF"/>
<stop offset="1" stop-color="#3849FB"/>
</linearGradient>
</defs>
</svg>
